<mxfile host="app.diagrams.net" modified="2022-06-18T06:49:37.343Z" agent="5.0 (Macintosh; Intel Mac OS X 10_15_7) AppleWebKit/537.36 (KHTML, like Gecko) Chrome/102.0.0.0 Safari/537.36" etag="P2We_lwBbxKGMZrzQljf" version="20.0.1" type="github">
  <diagram id="sCeNGKuvEkchZpG8NmpO" name="第 1 页">
    <mxGraphModel dx="1063" dy="794" grid="1" gridSize="10" guides="1" tooltips="1" connect="1" arrows="1" fold="1" page="1" pageScale="1" pageWidth="1169" pageHeight="1654" math="0" shadow="1">
      <root>
        <mxCell id="0" />
        <mxCell id="1" parent="0" />
        <mxCell id="FKmxFEdcClTWhKOKyuXi-7" value="" style="rounded=0;whiteSpace=wrap;html=1;fontSize=24;fontColor=#FFFFFF;strokeWidth=3;dashed=1;fillColor=none;sketch=0;" vertex="1" parent="1">
          <mxGeometry x="230" y="320" width="620" height="237" as="geometry" />
        </mxCell>
        <mxCell id="FKmxFEdcClTWhKOKyuXi-1" value="&lt;font size=&quot;1&quot; style=&quot;&quot;&gt;&lt;b style=&quot;font-size: 32px;&quot;&gt;Hardware&lt;/b&gt;&lt;/font&gt;" style="rounded=0;whiteSpace=wrap;html=1;fillColor=#e51400;strokeColor=#B20000;fontColor=#ffffff;sketch=0;" vertex="1" parent="1">
          <mxGeometry x="240" y="480" width="600" height="60" as="geometry" />
        </mxCell>
        <mxCell id="FKmxFEdcClTWhKOKyuXi-3" value="&lt;font style=&quot;font-size: 24px;&quot;&gt;FIle Manager&amp;nbsp;&lt;/font&gt;" style="rounded=0;whiteSpace=wrap;html=1;fontSize=32;fillColor=#d80073;strokeColor=#A50040;fontColor=#ffffff;sketch=0;" vertex="1" parent="1">
          <mxGeometry x="240" y="410" width="180" height="60" as="geometry" />
        </mxCell>
        <mxCell id="FKmxFEdcClTWhKOKyuXi-4" value="&lt;font style=&quot;font-size: 24px;&quot;&gt;Memory Manager&amp;nbsp;&lt;/font&gt;" style="rounded=0;whiteSpace=wrap;html=1;fontSize=32;fillColor=#6a00ff;strokeColor=#3700CC;fontColor=#ffffff;sketch=0;" vertex="1" parent="1">
          <mxGeometry x="430" y="410" width="200" height="60" as="geometry" />
        </mxCell>
        <mxCell id="FKmxFEdcClTWhKOKyuXi-5" value="&lt;font style=&quot;font-size: 24px;&quot;&gt;Network Manager&amp;nbsp;&lt;/font&gt;" style="rounded=0;whiteSpace=wrap;html=1;fontSize=32;fillColor=#60a917;strokeColor=#2D7600;fontColor=#ffffff;sketch=0;" vertex="1" parent="1">
          <mxGeometry x="640" y="410" width="200" height="60" as="geometry" />
        </mxCell>
        <mxCell id="FKmxFEdcClTWhKOKyuXi-6" value="&lt;b&gt;&lt;font color=&quot;#ffffff&quot;&gt;System Call&lt;/font&gt;&lt;/b&gt;" style="rounded=0;whiteSpace=wrap;html=1;fontSize=24;fillColor=#ffcd28;strokeColor=#d79b00;gradientColor=#ffa500;sketch=0;" vertex="1" parent="1">
          <mxGeometry x="240" y="340" width="600" height="60" as="geometry" />
        </mxCell>
        <mxCell id="FKmxFEdcClTWhKOKyuXi-8" value="User Programs" style="rounded=0;whiteSpace=wrap;html=1;sketch=0;fontSize=24;strokeWidth=3;fillColor=#cdeb8b;strokeColor=#36393d;" vertex="1" parent="1">
          <mxGeometry x="230" y="240" width="620" height="60" as="geometry" />
        </mxCell>
        <mxCell id="FKmxFEdcClTWhKOKyuXi-9" value="" style="shape=curlyBracket;whiteSpace=wrap;html=1;rounded=1;flipH=1;sketch=0;fontSize=24;fontColor=#FFFFFF;strokeWidth=3;fillColor=none;" vertex="1" parent="1">
          <mxGeometry x="860" y="320" width="20" height="230" as="geometry" />
        </mxCell>
        <mxCell id="FKmxFEdcClTWhKOKyuXi-10" value="&lt;font color=&quot;#000000&quot;&gt;OS Kernel&lt;/font&gt;" style="text;html=1;align=center;verticalAlign=middle;resizable=0;points=[];autosize=1;strokeColor=none;fillColor=none;fontSize=24;fontColor=#FFFFFF;" vertex="1" parent="1">
          <mxGeometry x="880" y="420" width="130" height="30" as="geometry" />
        </mxCell>
      </root>
    </mxGraphModel>
  </diagram>
</mxfile>
